#Comment line ignore any data following # character 
#Hierarchical Translation and Rotation (.htr) file 
[Header]	
#Header keywords are followed by a single value 
FileType HTR		#Single word string
DataType HTRS		#Translation followed by rotation and scale data
FileVersion 1		#integer
NumSegments 84		#integer
NumFrames 2		#integer
DataFrameRate 30		#integer, data frame rate in this file
EulerRotationOrder ZYX
CalibrationUnits mm
RotationUnits Degrees
GlobalAxisofGravity Y
BoneLengthAxis Y
ScaleFactor 1.00
[SegmentNames&Hierarchy]
#CHILD	PARENT
MASTER GLOBAL
root MASTER
chest root
L_mid_tent01 root
R_mid_tent01 root
spine01 root
Bip01_Neck chest
L_humerus chest
R_humerus chest
weapon_bone chest
Bip01_Head Bip01_Neck
eye_left_bone Bip01_Head
eye_right_bone Bip01_Head
L_forearm L_humerus
L_front_hand L_forearm
L_weapon_bone L_forearm
L_front_hand01_01 L_front_hand
L_front_hand02_01 L_front_hand
L_front_hand03_01 L_front_hand
L_front_hand01_02 L_front_hand01_01
L_front_hand02_02 L_front_hand02_01
L_front_hand03_02 L_front_hand03_01
R_forearm R_humerus
R_front_hand R_forearm
R_weapon_bone R_forearm
R_front_hand01_01 R_front_hand
R_front_hand02_01 R_front_hand
R_front_hand03_01 R_front_hand
R_front_hand01_02 R_front_hand01_01
R_front_hand02_02 R_front_hand02_01
R_front_hand03_02 R_front_hand03_01
null_rope01_connect L_mid_tent01
Rope1_Seg01 null_rope01_connect
Rope1_Seg02 Rope1_Seg01
Rope1_Seg03 Rope1_Seg02
Rope1_Seg04 Rope1_Seg03
Rope1_Seg05 Rope1_Seg04
Rope1_Seg06 Rope1_Seg05
Rope1_Seg07 Rope1_Seg06
Rope1_Seg09 Rope1_Seg07
L_mid_hand01 Rope1_Seg09
L_mid_hand02 Rope1_Seg09
L_mid_hand03 Rope1_Seg09
null_rope02_connect R_mid_tent01
Rope2_Seg01 null_rope02_connect
Rope2_Seg02 Rope2_Seg01
Rope2_Seg03 Rope2_Seg02
Rope2_Seg04 Rope2_Seg03
Rope2_Seg05 Rope2_Seg04
Rope2_Seg06 Rope2_Seg05
Rope2_Seg07 Rope2_Seg06
Rope2_Seg09 Rope2_Seg07
R_mid_hand01 Rope2_Seg09
R_mid_hand02 Rope2_Seg09
R_mid_hand03 Rope2_Seg09
spine02 spine01
spine03 spine02
pelvis spine03
null_rope03_connect pelvis
null_rope04_connect pelvis
Rope3_Seg01 null_rope03_connect
Rope3_Seg02 Rope3_Seg01
Rope3_Seg03 Rope3_Seg02
Rope3_Seg04 Rope3_Seg03
Rope3_Seg05 Rope3_Seg04
Rope3_Seg06 Rope3_Seg05
Rope3_Seg07 Rope3_Seg06
Rope3_Seg08 Rope3_Seg07
Rope3_Seg09 Rope3_Seg08
R_rear_hand01 Rope3_Seg09
R_rear_hand02 Rope3_Seg09
R_rear_hand03 Rope3_Seg09
Rope4_Seg01 null_rope04_connect
Rope4_Seg02 Rope4_Seg01
Rope4_Seg03 Rope4_Seg02
Rope4_Seg04 Rope4_Seg03
Rope4_Seg05 Rope4_Seg04
Rope4_Seg06 Rope4_Seg05
Rope4_Seg07 Rope4_Seg06
Rope4_Seg08 Rope4_Seg07
Rope4_Seg09 Rope4_Seg08
L_rear_hand01 Rope4_Seg09
L_rear_hand02 Rope4_Seg09
L_rear_hand03 Rope4_Seg09
[BasePosition]
#SegmentName Tx, Ty, Tz, Rx, Ry, Rz, BoneLength
MASTER 0.000000 0.000000 0.000000 -90.000000 0.000000 0.000000 10.000000 
root 0.000000 0.000000 0.000000 0.000000 0.000000 0.000000 10.000000 
chest 0.000000 0.000000 0.000000 0.000000 0.000000 0.000000 10.000000 
L_mid_tent01 0.000000 0.000000 0.000000 0.000000 0.000000 0.000000 10.000000 
R_mid_tent01 0.000000 0.000000 0.000000 0.000000 0.000000 0.000000 10.000000 
spine01 0.000000 0.000000 0.000000 0.000000 0.000000 0.000000 10.000000 
Bip01_Neck 0.000000 0.000000 0.000000 0.000000 0.000000 0.000000 10.000000 
L_humerus 0.000000 0.000000 0.000000 0.000000 0.000000 0.000000 10.000000 
R_humerus 0.000000 0.000000 0.000000 0.000000 0.000000 0.000000 10.000000 
weapon_bone 0.000000 0.000000 0.000000 0.000000 0.000000 0.000000 10.000000 
Bip01_Head 0.000000 0.000000 0.000000 0.000000 0.000000 0.000000 10.000000 
eye_left_bone 0.000000 0.000000 0.000000 0.000000 0.000000 0.000000 10.000000 
eye_right_bone 0.000000 0.000000 0.000000 0.000000 0.000000 0.000000 10.000000 
L_forearm 0.000000 0.000000 0.000000 0.000000 0.000000 0.000000 10.000000 
L_front_hand 0.000000 0.000000 0.000000 0.000000 0.000000 0.000000 10.000000 
L_weapon_bone 0.000000 0.000000 0.000000 0.000000 0.000000 0.000000 10.000000 
L_front_hand01_01 0.000000 0.000000 0.000000 0.000000 0.000000 0.000000 10.000000 
L_front_hand02_01 0.000000 0.000000 0.000000 0.000000 0.000000 0.000000 10.000000 
L_front_hand03_01 0.000000 0.000000 0.000000 0.000000 0.000000 0.000000 10.000000 
L_front_hand01_02 0.000000 0.000000 0.000000 0.000000 0.000000 0.000000 10.000000 
L_front_hand02_02 0.000000 0.000000 0.000000 0.000000 0.000000 0.000000 10.000000 
L_front_hand03_02 0.000000 0.000000 0.000000 0.000000 0.000000 0.000000 10.000000 
R_forearm 0.000000 0.000000 0.000000 0.000000 0.000000 0.000000 10.000000 
R_front_hand 0.000000 0.000000 0.000000 0.000000 0.000000 0.000000 10.000000 
R_weapon_bone 0.000000 0.000000 0.000000 0.000000 0.000000 0.000000 10.000000 
R_front_hand01_01 0.000000 0.000000 0.000000 0.000000 0.000000 0.000000 10.000000 
R_front_hand02_01 0.000000 0.000000 0.000000 0.000000 0.000000 0.000000 10.000000 
R_front_hand03_01 0.000000 0.000000 0.000000 0.000000 0.000000 0.000000 10.000000 
R_front_hand01_02 0.000000 0.000000 0.000000 0.000000 0.000000 0.000000 10.000000 
R_front_hand02_02 0.000000 0.000000 0.000000 0.000000 0.000000 0.000000 10.000000 
R_front_hand03_02 0.000000 0.000000 0.000000 0.000000 0.000000 0.000000 10.000000 
null_rope01_connect 0.000000 0.000000 0.000000 0.000000 0.000000 0.000000 10.000000 
Rope1_Seg01 0.000000 0.000000 0.000000 0.000000 0.000000 0.000000 10.000000 
Rope1_Seg02 0.000000 0.000000 0.000000 0.000000 0.000000 0.000000 10.000000 
Rope1_Seg03 0.000000 0.000000 0.000000 0.000000 0.000000 0.000000 10.000000 
Rope1_Seg04 0.000000 0.000000 0.000000 0.000000 0.000000 0.000000 10.000000 
Rope1_Seg05 0.000000 0.000000 0.000000 0.000000 0.000000 0.000000 10.000000 
Rope1_Seg06 0.000000 0.000000 0.000000 0.000000 0.000000 0.000000 10.000000 
Rope1_Seg07 0.000000 0.000000 0.000000 0.000000 0.000000 0.000000 10.000000 
Rope1_Seg09 0.000000 0.000000 0.000000 0.000000 0.000000 0.000000 10.000000 
L_mid_hand01 0.000000 0.000000 0.000000 0.000000 0.000000 0.000000 10.000000 
L_mid_hand02 0.000000 0.000000 0.000000 0.000000 0.000000 0.000000 10.000000 
L_mid_hand03 0.000000 0.000000 0.000000 0.000000 0.000000 0.000000 10.000000 
null_rope02_connect 0.000000 0.000000 0.000000 0.000000 0.000000 0.000000 10.000000 
Rope2_Seg01 0.000000 0.000000 0.000000 0.000000 0.000000 0.000000 10.000000 
Rope2_Seg02 0.000000 0.000000 0.000000 0.000000 0.000000 0.000000 10.000000 
Rope2_Seg03 0.000000 0.000000 0.000000 0.000000 0.000000 0.000000 10.000000 
Rope2_Seg04 0.000000 0.000000 0.000000 0.000000 0.000000 0.000000 10.000000 
Rope2_Seg05 0.000000 0.000000 0.000000 0.000000 0.000000 0.000000 10.000000 
Rope2_Seg06 0.000000 0.000000 0.000000 0.000000 0.000000 0.000000 10.000000 
Rope2_Seg07 0.000000 0.000000 0.000000 0.000000 0.000000 0.000000 10.000000 
Rope2_Seg09 0.000000 0.000000 0.000000 0.000000 0.000000 0.000000 10.000000 
R_mid_hand01 0.000000 0.000000 0.000000 0.000000 0.000000 0.000000 10.000000 
R_mid_hand02 0.000000 0.000000 0.000000 0.000000 0.000000 0.000000 10.000000 
R_mid_hand03 0.000000 0.000000 0.000000 0.000000 0.000000 0.000000 10.000000 
spine02 0.000000 0.000000 0.000000 0.000000 0.000000 0.000000 10.000000 
spine03 0.000000 0.000000 0.000000 0.000000 0.000000 0.000000 10.000000 
pelvis 0.000000 0.000000 0.000000 0.000000 0.000000 0.000000 10.000000 
null_rope03_connect 0.000000 0.000000 0.000000 0.000000 0.000000 0.000000 10.000000 
null_rope04_connect 0.000000 0.000000 0.000000 0.000000 0.000000 0.000000 10.000000 
Rope3_Seg01 0.000000 0.000000 0.000000 0.000000 0.000000 0.000000 10.000000 
Rope3_Seg02 0.000000 0.000000 0.000000 0.000000 0.000000 0.000000 10.000000 
Rope3_Seg03 0.000000 0.000000 0.000000 0.000000 0.000000 0.000000 10.000000 
Rope3_Seg04 0.000000 0.000000 0.000000 0.000000 0.000000 0.000000 10.000000 
Rope3_Seg05 0.000000 0.000000 0.000000 0.000000 0.000000 0.000000 10.000000 
Rope3_Seg06 0.000000 0.000000 0.000000 0.000000 0.000000 0.000000 10.000000 
Rope3_Seg07 0.000000 0.000000 0.000000 0.000000 0.000000 0.000000 10.000000 
Rope3_Seg08 0.000000 0.000000 0.000000 0.000000 0.000000 0.000000 10.000000 
Rope3_Seg09 0.000000 0.000000 0.000000 0.000000 0.000000 0.000000 10.000000 
R_rear_hand01 0.000000 0.000000 0.000000 0.000000 0.000000 0.000000 10.000000 
R_rear_hand02 0.000000 0.000000 0.000000 0.000000 0.000000 0.000000 10.000000 
R_rear_hand03 0.000000 0.000000 0.000000 0.000000 0.000000 0.000000 10.000000 
Rope4_Seg01 0.000000 0.000000 0.000000 0.000000 0.000000 0.000000 10.000000 
Rope4_Seg02 0.000000 0.000000 0.000000 0.000000 0.000000 0.000000 10.000000 
Rope4_Seg03 0.000000 0.000000 0.000000 0.000000 0.000000 0.000000 10.000000 
Rope4_Seg04 0.000000 0.000000 0.000000 0.000000 0.000000 0.000000 10.000000 
Rope4_Seg05 0.000000 0.000000 0.000000 0.000000 0.000000 0.000000 10.000000 
Rope4_Seg06 0.000000 0.000000 0.000000 0.000000 0.000000 0.000000 10.000000 
Rope4_Seg07 0.000000 0.000000 0.000000 0.000000 0.000000 0.000000 10.000000 
Rope4_Seg08 0.000000 0.000000 0.000000 0.000000 0.000000 0.000000 10.000000 
Rope4_Seg09 0.000000 0.000000 0.000000 0.000000 0.000000 0.000000 10.000000 
L_rear_hand01 0.000000 0.000000 0.000000 0.000000 0.000000 0.000000 10.000000 
L_rear_hand02 0.000000 0.000000 0.000000 0.000000 0.000000 0.000000 10.000000 
L_rear_hand03 0.000000 0.000000 0.000000 0.000000 0.000000 0.000000 10.000000 
#Beginning of Data. Separated by tabs
#Fr	Tx	Ty	Tz	Rx	Ry	Rz	SF
[MASTER]
195 3934.603027 4630.669922 -6670.992676 0.001346 0.001923 -20.001186 9023.654297
196 3711.382813 4666.026367 -6850.219238 0.001346 0.001923 -20.001186 9081.390625
[root]
195 1309.912231 -1193.241943 1205.600830 -78.242332 -33.929169 -138.392303 2143.168213
196 1595.008545 -1189.123291 1220.372314 -80.258957 -30.694458 -133.169281 2333.961182
[chest]
195 -84.512650 -34.090519 0.000000 -2.170494 -0.006436 168.239609 91.129311
196 -84.512650 -34.090519 0.000000 -2.170494 -0.006436 168.239609 91.129311
[L_mid_tent01]
195 27.298601 22.179546 -249.918823 45.670528 39.159817 71.296196 252.381775
196 27.298599 22.179548 -249.918823 24.884230 38.575691 52.340103 252.381775
[R_mid_tent01]
195 23.228794 24.509907 226.238495 -166.227219 -17.267204 21.904947 228.744751
196 23.228794 24.509907 226.238495 -166.227219 -17.267204 21.904945 228.744751
[spine01]
195 -0.361383 -0.195265 0.000000 -0.000001 -0.000007 22.052340 0.410763
196 -0.361383 -0.195265 0.000000 -0.000001 -0.000007 22.052340 0.410763
[Bip01_Neck]
195 165.484543 71.581718 0.000119 176.643677 -1.657967 43.431911 180.302734
196 165.484543 71.581718 0.000119 176.643677 -1.657967 43.431911 180.302734
[L_humerus]
195 -13.983130 -135.272980 -120.471481 14.943666 67.810295 103.407654 181.680161
196 -13.983130 -135.272980 -120.471481 14.943666 67.810295 103.407654 181.680161
[R_humerus]
195 -13.983309 -135.273102 125.287651 17.369425 -71.373497 80.150421 184.909012
196 -13.983309 -135.273102 125.287651 17.369425 -71.373497 80.150421 184.909012
[weapon_bone]
195 235.964890 -300.705902 0.000000 0.000000 -89.951546 -128.212341 382.234833
196 235.964890 -300.705902 0.000000 0.000000 -89.951546 -128.212341 382.234833
[Bip01_Head]
195 164.113037 158.462677 53.316650 14.420056 2.795917 -43.900150 234.277985
196 164.113037 158.462662 53.316650 9.513546 2.795433 -43.898445 234.277969
[eye_left_bone]
195 -24.626970 125.451866 -64.772606 0.000000 -90.000000 -99.840431 143.318359
196 -24.626970 125.451866 -64.772606 0.000000 -90.000000 -99.840431 143.318359
[eye_right_bone]
195 -24.626970 125.451866 64.327362 0.000000 -89.965736 80.156380 143.117676
196 -24.626970 125.451866 64.327362 0.000000 -89.965736 80.156380 143.117676
[L_forearm]
195 322.776093 0.000000 -0.000119 0.000396 -0.002314 -109.419975 322.776093
196 322.776093 0.000000 -0.000119 0.000396 -0.002314 -109.419975 322.776093
[L_front_hand]
195 241.149185 -0.042021 -3.300071 0.836590 -1.835725 -27.423449 241.171753
196 241.149185 -0.042021 -3.300071 0.836591 -1.835726 -27.423458 241.171753
[L_weapon_bone]
195 156.183838 0.000000 0.000000 0.000014 0.000007 0.000001 156.183838
196 156.183838 0.000000 0.000000 0.000014 0.000007 0.000001 156.183838
[L_front_hand01_01]
195 86.095154 20.947098 -0.655860 -0.366594 -0.477154 75.385574 88.609184
196 86.095154 20.947098 -0.655860 -0.366594 -0.477154 75.385574 88.609184
[L_front_hand02_01]
195 86.935165 -11.437475 24.513514 154.399796 -59.883835 -61.369587 91.046425
196 86.935165 -11.437475 24.513514 154.399796 -59.883835 -61.369587 91.046425
[L_front_hand03_01]
195 86.637497 -14.123976 -20.424902 -153.913849 58.118122 -62.702866 90.126129
196 86.637497 -14.123976 -20.424902 -153.913849 58.118122 -62.702866 90.126129
[L_front_hand01_02]
195 71.020905 -0.000179 0.000030 0.000334 -0.002323 -106.379684 71.020905
196 71.020905 -0.000179 0.000030 0.000334 -0.002323 -106.379684 71.020905
[L_front_hand02_02]
195 71.020927 -0.000119 0.000060 0.000334 -0.002323 -106.379684 71.020927
196 71.020927 -0.000119 0.000060 0.000334 -0.002323 -106.379684 71.020927
[L_front_hand03_02]
195 71.020905 -0.000060 0.000060 0.000334 -0.002323 -106.379684 71.020905
196 71.020905 -0.000060 0.000060 0.000334 -0.002323 -106.379684 71.020905
[R_forearm]
195 322.776428 -0.000060 0.000030 0.202103 0.065158 -108.062805 322.776428
196 322.776428 -0.000060 0.000030 0.202103 0.065158 -108.062805 322.776428
[R_front_hand]
195 238.847015 -0.006795 2.210259 42.936222 -10.646152 -26.312963 238.857239
196 238.847015 -0.006795 2.210259 42.936222 -10.646152 -26.312963 238.857239
[R_weapon_bone]
195 155.664093 0.002503 -0.000030 0.003487 0.001180 -90.988930 155.664078
196 155.664093 0.002503 -0.000030 0.003487 0.001180 -90.988930 155.664078
[R_front_hand01_01]
195 87.624611 14.231146 22.918642 -154.633499 -59.950619 61.746044 91.683487
196 87.624611 14.231146 22.918642 -154.633499 -59.950619 61.746044 91.683487
[R_front_hand02_01]
195 89.356956 14.367283 -19.491137 154.602661 58.302849 63.744389 92.579636
196 89.356956 14.367283 -19.491137 154.602661 58.302849 63.744389 92.579636
[R_front_hand03_01]
195 87.286232 -22.307278 -0.143439 0.162155 -0.423168 -75.767921 90.091743
196 87.286232 -22.307278 -0.143439 0.162155 -0.423168 -75.767921 90.091743
[R_front_hand01_02]
195 71.020905 0.000060 0.000119 0.002323 -0.000334 106.381706 71.020905
196 71.020905 0.000060 0.000119 0.002323 -0.000334 106.381714 71.020905
[R_front_hand02_02]
195 71.020844 -0.000030 -0.000119 0.002323 -0.000334 106.381706 71.020836
196 71.020844 -0.000030 -0.000119 0.002323 -0.000334 106.381714 71.020836
[R_front_hand03_02]
195 71.020905 0.000000 0.000030 0.002323 -0.000334 106.381706 71.020905
196 71.020905 0.000000 0.000030 0.002323 -0.000334 106.381714 71.020905
[null_rope01_connect]
195 328.732483 0.000000 -0.000238 -63.527523 27.440935 154.995956 328.732483
196 328.732483 0.000000 -0.000238 -72.823044 12.806841 161.099274 328.732483
[Rope1_Seg01]
195 -0.000009 0.000000 0.000000 -25.644075 -18.761604 -166.411667 0.000009
196 -0.000008 0.000000 0.000000 -48.474602 -39.383156 -166.514801 0.000008
[Rope1_Seg02]
195 139.999863 -0.000179 0.000000 56.629856 49.624226 44.257092 139.999863
196 139.999863 -0.000179 0.000000 67.594849 32.717991 52.509453 139.999863
[Rope1_Seg03]
195 139.999924 0.000060 -0.000060 1.043250 9.658339 -0.678776 139.999924
196 139.999924 0.000060 -0.000060 7.480583 21.880724 2.889308 139.999924
[Rope1_Seg04]
195 139.999924 -0.000060 -0.000119 -0.549340 16.287455 -2.944872 139.999924
196 139.999924 -0.000060 -0.000119 0.857142 9.970222 -2.380107 139.999924
[Rope1_Seg05]
195 139.999832 0.000119 -0.000060 -5.295928 22.819134 -4.458626 139.999832
196 139.999832 0.000119 -0.000060 -1.536211 17.639608 -7.543516 139.999832
[Rope1_Seg06]
195 139.999954 0.000119 -0.000060 -4.806941 11.714472 -1.201628 139.999954
196 139.999954 0.000119 -0.000060 -9.128687 26.444763 -12.496939 139.999954
[Rope1_Seg07]
195 139.999985 0.000060 0.000000 -3.493479 6.446417 -0.106959 139.999985
196 139.999985 0.000060 0.000000 -7.635900 12.887681 -3.740020 139.999985
[Rope1_Seg09]
195 121.602913 0.000119 -0.000089 -89.793175 -1.359789 0.847147 121.602913
196 121.602913 0.000119 -0.000089 -89.793175 -1.359789 0.847147 121.602913
[L_mid_hand01]
195 103.859421 1.038730 8.195221 130.544373 -67.584534 -38.866943 104.187431
196 103.859421 1.038730 8.195221 130.544373 -67.584534 -38.866943 104.187431
[L_mid_hand02]
195 105.572853 -4.139662 -10.864139 -168.923172 43.409309 -73.498886 106.211075
196 105.572853 -4.139662 -10.864139 -168.923172 43.409309 -73.498886 106.211075
[L_mid_hand03]
195 104.641464 17.579376 -3.913581 -6.012626 17.808172 74.893661 106.179977
196 104.641464 17.579376 -3.913581 -6.012627 17.808178 74.893677 106.179977
[null_rope02_connect]
195 328.732849 0.000179 -0.000119 117.489830 45.439266 -175.314407 328.732849
196 328.732849 0.000179 -0.000119 118.796974 48.032085 -169.565414 328.732849
[Rope2_Seg01]
195 0.000009 0.000000 0.000000 -51.303032 -22.716290 -123.669609 0.000009
196 0.000008 0.000000 0.000000 -50.393745 -15.389687 -119.213646 0.000008
[Rope2_Seg02]
195 139.999741 -0.000060 -0.000119 -1.078661 -20.319088 11.678657 139.999756
196 139.999741 -0.000060 -0.000119 -1.559381 -16.519211 6.296869 139.999756
[Rope2_Seg03]
195 140.000107 0.000030 0.000000 12.089854 -32.664951 23.468960 140.000107
196 140.000107 0.000030 0.000000 -1.009539 -31.156332 17.977848 140.000107
[Rope2_Seg04]
195 139.999802 0.000000 -0.000060 -32.194656 25.846067 -41.911438 139.999802
196 139.999802 0.000000 -0.000060 -22.387152 36.250664 -37.209084 139.999802
[Rope2_Seg05]
195 139.999985 -0.000060 0.000119 -15.325503 43.927761 -35.928627 139.999985
196 139.999985 -0.000060 0.000119 -7.482294 35.759277 -22.795092 139.999985
[Rope2_Seg06]
195 139.999893 -0.000030 -0.000119 0.218457 5.884474 -3.587852 139.999893
196 139.999893 -0.000030 -0.000119 0.053792 5.814221 -3.264347 139.999893
[Rope2_Seg07]
195 139.999893 0.000060 -0.000060 0.186198 2.824191 -1.745093 139.999893
196 139.999893 0.000060 -0.000060 0.083291 2.921443 -1.648661 139.999893
[Rope2_Seg09]
195 121.338966 0.000089 -0.000060 33.793236 -1.359788 -0.847141 121.338966
196 121.338966 0.000089 -0.000060 33.793236 -1.359788 -0.847141 121.338966
[R_mid_hand01]
195 104.680779 11.144459 -10.335981 -16.212063 45.237247 70.462852 105.778534
196 104.680779 11.144459 -10.335981 -16.212063 45.237247 70.462852 105.778534
[R_mid_hand02]
195 104.070427 2.443552 8.231699 49.067368 -67.749771 39.286453 104.424065
196 104.070427 2.443552 8.231699 49.067368 -67.749771 39.286453 104.424065
[R_mid_hand03]
195 106.028137 -11.221827 -5.996406 -177.101105 15.551026 -76.585571 106.788818
196 106.028137 -11.221827 -5.996406 -177.101105 15.551026 -76.585571 106.788818
[spine02]
195 129.756927 0.001550 0.000119 0.360296 -4.044777 -12.921705 129.756927
196 129.756927 0.001550 0.000119 0.360276 -4.044778 -12.921152 129.756927
[spine03]
195 78.613892 0.081769 -4.898992 1.896649 3.831212 16.477667 78.766426
196 78.613892 0.081771 -4.898991 1.896572 3.831250 16.475357 78.766426
[pelvis]
195 169.435242 0.051022 0.000000 -0.060471 -0.180223 14.091664 169.435257
196 169.435242 0.051022 0.000000 -0.060471 -0.180223 14.091355 169.435257
[null_rope03_connect]
195 -1.257226 -2.466202 137.391083 -77.790855 -28.195168 169.060226 137.418976
196 -1.257226 -2.466202 137.391083 -78.910645 -31.796907 165.546844 137.418976
[null_rope04_connect]
195 -1.259640 -2.480268 -137.844437 -77.790855 -28.195168 169.060226 137.872513
196 -1.259640 -2.480268 -137.844437 -78.910645 -31.796907 165.546844 137.872513
[Rope3_Seg01]
195 0.000000 0.000144 0.000000 -29.592762 6.494072 -155.868393 0.000144
196 0.000000 0.000144 0.000000 -26.045137 10.047878 -152.041214 0.000144
[Rope3_Seg02]
195 139.999924 -0.000119 0.000060 20.522692 -10.060012 -2.676116 139.999924
196 139.999924 -0.000119 0.000060 12.140689 -7.472102 -0.150659 139.999924
[Rope3_Seg03]
195 139.999924 -0.000119 0.000119 73.111702 -25.537178 1.191907 139.999924
196 139.999924 -0.000119 0.000119 28.661413 -13.691399 2.055340 139.999924
[Rope3_Seg04]
195 139.999924 0.000119 0.000000 21.561834 -5.411014 25.394669 139.999924
196 139.999924 0.000119 0.000000 37.182644 -18.388773 14.173111 139.999924
[Rope3_Seg05]
195 139.999924 -0.000238 0.000060 -81.485466 -0.518215 -50.098713 139.999924
196 139.999924 -0.000238 0.000060 -51.132801 11.338235 -26.539995 139.999924
[Rope3_Seg06]
195 139.999893 -0.000119 -0.000060 -23.378881 15.851849 -2.595786 139.999893
196 139.999893 -0.000119 -0.000060 -21.093746 13.808107 -4.745636 139.999893
[Rope3_Seg07]
195 139.999771 0.000060 -0.000119 -4.025609 5.189703 1.399091 139.999771
196 139.999771 0.000060 -0.000119 -4.584200 5.064594 0.323506 139.999771
[Rope3_Seg08]
195 139.999985 -0.000060 0.000000 -1.412036 2.639699 0.918856 139.999985
196 139.999985 -0.000060 0.000000 -1.854014 2.753477 0.397164 139.999985
[Rope3_Seg09]
195 90.185997 -0.000179 -0.000060 89.793228 -1.359877 -0.847183 90.185997
196 90.185997 -0.000179 -0.000060 89.793228 -1.359877 -0.847183 90.185997
[R_rear_hand01]
195 103.366196 -6.073594 -10.757982 -177.714203 24.565960 -73.910950 104.101845
196 103.366196 -6.073594 -10.757982 -177.714203 24.565960 -73.910950 104.101845
[R_rear_hand02]
195 100.509819 12.039542 -7.992327 -12.874829 36.868488 72.167213 101.543350
196 100.509819 12.039542 -7.992327 -12.874829 36.868488 72.167213 101.543350
[R_rear_hand03]
195 101.539970 5.215704 5.435467 71.484619 -71.816643 21.513803 101.819031
196 101.539970 5.215704 5.435467 71.484581 -71.816628 21.513813 101.819031
[Rope4_Seg01]
195 -0.000287 0.000000 0.000000 106.638588 55.185047 132.723495 0.000287
196 -0.000289 0.000000 0.000000 114.409149 51.653515 141.050400 0.000289
[Rope4_Seg02]
195 139.999985 0.000060 0.000119 2.135194 -8.438491 -6.428461 139.999985
196 139.999985 0.000060 0.000119 1.676825 -11.138142 -6.565691 139.999985
[Rope4_Seg03]
195 139.999924 0.000000 -0.000238 1.460904 -8.716397 -6.174135 139.999924
196 139.999924 0.000000 -0.000238 0.944298 -11.927799 -6.116405 139.999924
[Rope4_Seg04]
195 139.999985 0.000000 0.000119 1.286615 -18.097332 -8.182197 139.999985
196 139.999985 0.000000 0.000119 0.475756 -20.603508 -6.038167 139.999985
[Rope4_Seg05]
195 139.999802 -0.000060 -0.000119 0.248470 -6.054061 -3.354538 139.999802
196 139.999802 -0.000060 -0.000119 0.140696 -3.467955 -2.140074 139.999802
[Rope4_Seg06]
195 139.999924 0.000000 0.000060 0.089406 10.529415 -0.129706 139.999924
196 139.999924 0.000000 0.000060 0.862261 19.855185 -1.552354 139.999924
[Rope4_Seg07]
195 139.999802 0.000000 0.000000 80.645187 78.750412 28.674938 139.999802
196 139.999802 0.000000 0.000000 50.793549 86.161919 -40.163486 139.999802
[Rope4_Seg08]
195 139.999924 0.000000 0.000119 57.313667 16.590635 -22.934685 139.999924
196 139.999924 0.000000 0.000119 18.307951 -0.715571 -16.320681 139.999924
[Rope4_Seg09]
195 90.185791 0.000060 0.000060 -135.617828 2.228885 0.850567 90.185791
196 90.185791 0.000060 0.000060 -135.617828 2.228885 0.850567 90.185791
[L_rear_hand01]
195 101.696655 -8.392275 -7.654577 -12.874829 -36.868488 107.832764 102.329041
196 101.696655 -8.392275 -7.654577 -12.874827 -36.868492 107.832764 102.329041
[L_rear_hand02]
195 102.726799 -1.568258 5.773216 71.484581 71.816628 158.486160 102.900848
196 102.726799 -1.568258 5.773216 71.484581 71.816628 158.486160 102.900848
[L_rear_hand03]
195 104.552910 9.721220 -10.420293 -177.714203 -24.565960 -106.089035 105.519653
196 104.552910 9.721220 -10.420293 -177.714203 -24.565960 -106.089035 105.519653
